<?xml version="1.0" encoding="utf-8"?>
<!-- Generator: Adobe Illustrator 15.0.0, SVG Export Plug-In  -->
<!DOCTYPE svg PUBLIC "-//W3C//DTD SVG 1.1//EN" "http://www.w3.org/Graphics/SVG/1.1/DTD/svg11.dtd" [
	<!ENTITY ns_flows "http://ns.adobe.com/Flows/1.0/">
]>
<svg version="1.1"
	 xmlns="http://www.w3.org/2000/svg" xmlns:xlink="http://www.w3.org/1999/xlink" xmlns:a="http://ns.adobe.com/AdobeSVGViewerExtensions/3.0/"
	 x="0px" y="0px" width="1500px" height="1500px" viewBox="-169.528 -60.743 1500 1500"
	 enable-background="new -169.528 -60.743 1500 1500" xml:space="preserve">
<defs>
</defs>
<path d="M209.205,581.66c0,0,0.565,477.172-3.468,540.938c-7.371,116.534-52.463,118.196-128.772,118.196
	c0,41.588,0,41.443,0,41.443h428.084c0,0,0,0.362,0-41.443c-47.186-1.127-136.721,11.335-137.155-116.463
	c-0.374-110.448,0.352-254.396,13.768-283.601c31.041-67.572,136.989,23.386,168.224,52.802
	c58.755,55.333,188.427,259.968,214.008,302.712c6.559,10.959,44.225,49.169-70.962,44.55c0,40.939-0.164,33.786,0,41.443
	c271.695,0,420.724,0,467.987,0c0-3.96,0.059-19.229,0-41.443c-260.033-8.089-311.441-369.314-606.442-535.669
	c416.399-360.433,377.638-352.781,499.335-369.675c0-32.491,0-24.241,0-33.938c-45.188-0.832-1.483,0.014-360.917,0
	c-0.22,34.658,0.22,2.024,0,36.391c169.531,4.84,122.812,44.912-318.066,415.307c-3.469-107.437,4.997-151.054,8.093-171.55
	C209.205,583.829,209.205,581.66,209.205,581.66z"/>
<linearGradient id="SVGID_1_" gradientUnits="userSpaceOnUse" x1="0" y1="364.4761" x2="516.532" y2="364.4761">
	<stop  offset="0" style="stop-color:#ED3125"/>
	<stop  offset="1" style="stop-color:#FDC214"/>
</linearGradient>
<path fill="url(#SVGID_1_)" d="M516.473,309.869l-2.042-107.826l-75.918,62.779c0.167-9.842-0.229-19.649-1.191-29.401
	c-4.043-40.936-17.791-78.849-40.865-112.687L312.762,0l-11.186,148.095c-4.704,62.264-29.181,86.968-47.183,100.136
	c-27.398,20.038-64.58,29.176-100.537,38.015c-25.658,6.306-49.895,12.262-71.337,22.294c-14.237,6.66-49.47,27.091-69.086,72.81
	c-19.78,46.104-17.708,102.534,6.157,167.725l83.533,179.878l-0.867-130.831c-4.335-59.204,28.067-92.128,36.399-100.505
	c16.713-16.8,78.911-61.097,104.947-71.913c0,0-29.723,35.965-47.982,58.05c39.16,13.468,113.195,28.562,134.45,28.562
	c57.014-0.006,102.525-16.919,135.27-50.262C500.009,426.746,517.69,374.123,516.473,309.869z M270.791,454.102
	c10.115-14.441,33.557-56.689,36.708-67.293c-63.302-15.883-239.623,49.386-239.045,144.406
	C23.94,409.626,81.728,366.313,104.585,355.617c72.841-34.078,234.998-19.928,248.873-203.61
	c35.842,52.561,43.936,120.142,17.343,190.035c51.451,11.551,76.888-17.328,93.653-31.191
	C465.653,374.181,447.111,488.181,270.791,454.102z"/>
</svg>
