<svg xmlns="http://www.w3.org/2000/svg" xml:space="preserve" width="1500" height="1500" viewBox="-170 -50 1500 1500"><path d="M210 582s1 477-3 541c-8 116-53 118-129 118v41h428v-41c-47-1-137 11-137-117-1-110 0-254 13-283 31-68 137 23 169 52 58 56 188 260 214 303 6 11 44 49-71 45v41h468v-41c-260-8-312-370-607-536 417-360 378-353 499-370l1-34H694v37c169 5 122 45-318 415-4-107 5-151 8-171-174 2-174 0-174 0z"/><linearGradient id="a" x1="0" x2="517.8" y1="364.5" y2="364.5" gradientUnits="userSpaceOnUse"><stop offset="0" style="stop-color:#ed3125"/><stop offset="1" style="stop-color:#fdc214"/></linearGradient><path fill="url(#a)" d="m517 310-2-108-76 63c2-104-70-184-125-265-5 56-5 114-14 170-21 121-152 94-233 148-146 97-16 297 37 411 0-50-5-102-1-152 5-72 80-126 141-151l-48 58c152 52 325 22 321-174 0 0 2 64 0 0zm-209 77c-63-16-239 49-239 144-37-103-5-169 96-194 102-25 181-69 189-185 39 56 41 127 18 190 39 9 65-8 93-31 1 63-17 177-193 143"/></svg>